<svg xmlns="http://www.w3.org/2000/svg" width="20" height="20" viewBox="0 0 24 24">
  <g transform="matrix(0.83,0,0,0.83,2,2)">
    <path d="M22.251 22.229A5.982 5.982 0 0 0 24 18c0-3.309-2.691-6-6-6a6.008 6.008 0 0 0-6 6c0 3.309 2.691 6 6 6 1.66 0 3.165-.679 4.251-1.771ZM23 18c0 1.198-.441 2.285-1.147 3.147l-7-7c.862-.705 1.948-1.146 3.146-1.146 2.757 0 5 2.243 5 5Zm-10 0c0-1.198.441-2.285 1.147-3.147l7 7c-.862.705-1.948 1.146-3.146 1.146-2.757 0-5-2.243-5-5Zm-4-6c3.309 0 6-2.691 6-6s-2.691-6-6-6-6 2.691-6 6 2.691 6 6 6ZM9 1c2.757 0 5 2.243 5 5s-2.243 5-5 5-5-2.243-5-5 2.243-5 5-5Zm1.992 13.719a.502.502 0 0 1-.579.405A8.156 8.156 0 0 0 9 15c-4.411 0-8 3.589-8 8v.5a.5.5 0 0 1-1 0V23c0-4.962 4.037-9 9-9 .531 0 1.065.047 1.587.14a.5.5 0 0 1 .405.58Z" fill="#000000"/>
  </g>
</svg>
