<svg width="64" height="64" viewBox="0 0 64 64" xmlns="http://www.w3.org/2000/svg" role="img" aria-label="Marib logo">
  <defs>
    <linearGradient id="maribGradient" x1="0%" y1="0%" x2="100%" y2="100%">
      <stop offset="0%" stop-color="#EB5924"/>
      <stop offset="100%" stop-color="#FA6E53"/>
    </linearGradient>
    <linearGradient id="maribAccent" x1="0%" y1="0%" x2="100%" y2="100%">
      <stop offset="0%" stop-color="#4FA5BA"/>
      <stop offset="100%" stop-color="#A8D7E6"/>
    </linearGradient>
  </defs>
  <rect width="64" height="64" rx="18" fill="#11172A"/>
  <path d="M16 44V20.5c0-1.1.9-2 2-2h2.6c.7 0 1.4.4 1.8 1l9.6 14.3 9.6-14.3a2.2 2.2 0 0 1 1.8-1H46c1.1 0 2 .9 2 2V44a2 2 0 0 1-2 2h-4.2a2 2 0 0 1-2-2V32.8l-6.1 9c-.8 1.1-2.5 1.1-3.3 0l-6.1-9V44a2 2 0 0 1-2 2H18a2 2 0 0 1-2-2Z" fill="url(#maribGradient)"/>
  <circle cx="48" cy="16" r="6" fill="url(#maribAccent)" opacity="0.9"/>
</svg>
